<svg width="483" height="298" viewBox="0 0 483 298" fill="none" xmlns="http://www.w3.org/2000/svg">
<g clip-path="url(#clip0)">
<path d="M113.204 294.63C119.387 289.238 123.144 280.72 122.159 272.427C121.173 264.135 115.073 256.511 107.159 254.75C99.2449 252.989 90.2236 257.864 87.8199 265.842C86.4971 250.461 84.9727 234.436 77.0486 221.337C69.8735 209.477 57.4461 200.991 43.9776 199.472C30.5091 197.954 16.3286 203.688 7.92879 214.659C-0.471008 225.629 -2.52768 241.578 3.35532 254.173C7.68913 263.451 15.6735 270.356 24.0392 275.974C51.0716 293.973 83.4934 301.293 115.339 296.586L113.204 294.63Z" fill="#00FFBE"/>
<path d="M21.1451 204.281C32.4635 213.743 42.847 224.325 52.1453 235.875C66.6971 253.888 78.4726 274.084 87.0615 295.759C87.6903 297.34 85.1884 298.029 84.5667 296.465C70.5137 261.238 48.0794 230.189 19.3156 206.159C18.024 205.079 19.8641 203.211 21.1451 204.281Z" fill="#222222"/>
<path d="M327.514 293.165C319.021 285.759 313.862 274.059 315.215 262.669C316.568 251.28 324.948 240.809 335.817 238.39C346.687 235.972 359.078 242.667 362.379 253.624C364.196 232.499 366.29 210.488 377.174 192.497C387.029 176.207 404.098 164.551 422.597 162.466C441.096 160.381 460.573 168.256 472.11 183.324C483.647 198.392 486.472 220.298 478.391 237.597C472.439 250.341 461.472 259.825 449.982 267.54C413.324 292.156 367.85 302.423 324.581 295.851" fill="#00FFBE"/>
<path d="M453.77 168.882C438.127 181.942 423.776 196.549 410.925 212.492C398.071 228.418 386.755 245.585 377.136 263.751C371.759 273.941 366.928 284.425 362.666 295.155C361.798 297.338 365.255 298.288 366.115 296.129C373.664 277.212 383.003 259.099 393.999 242.05C404.942 225.062 417.467 209.203 431.397 194.694C439.276 186.492 447.589 178.74 456.299 171.473C458.084 169.983 455.541 167.404 453.77 168.882L453.77 168.882Z" fill="#222222"/>
<path d="M136.295 297.348H338.933V82.7876C338.933 37.1382 302.945 -7.62939e-06 258.71 -7.62939e-06H216.517C172.282 -7.62939e-06 136.295 37.1382 136.295 82.7876V297.348Z" fill="#CCCCCC"/>
<path d="M178.488 297.348H338.933V82.7876C338.977 65.2958 333.61 48.2461 323.612 34.1209C323.244 33.6025 322.876 33.0909 322.497 32.5848C317.662 26.0397 311.907 20.2756 305.423 15.4827C305.057 15.2077 304.689 14.9375 304.316 14.6672C298.891 10.7928 293.022 7.62548 286.844 5.23745C286.477 5.09394 286.103 4.95015 285.73 4.81223C280.142 2.75432 274.349 1.34467 268.459 0.609297C268.094 0.55782 267.719 0.517538 267.344 0.477256C261.604 -0.156095 255.815 -0.156095 250.075 0.477256C249.702 0.517538 249.327 0.557815 248.957 0.609848C243.069 1.34527 237.278 2.75475 231.691 4.81225C231.317 4.95017 230.944 5.09396 230.576 5.23775C224.474 7.59565 218.674 10.7157 213.306 14.5282C212.934 14.7926 212.56 15.0628 212.193 15.333C208.558 18.0102 205.145 20.9926 201.987 24.25C199.454 26.8628 197.094 29.6479 194.922 32.5865C194.544 33.0909 194.177 33.6026 193.809 34.1201C183.811 48.2455 178.444 65.2955 178.488 82.7876V297.348Z" fill="#555555"/>
<path d="M191.534 201.383C186.629 201.383 182.652 197.279 182.652 192.216C182.652 187.153 186.629 183.049 191.534 183.049C196.44 183.049 200.417 187.153 200.417 192.216C200.417 197.279 196.44 201.383 191.534 201.383Z" fill="#0CF1E2"/>
<path d="M152.895 290.921H159.701L162.94 263.829L152.894 263.829L152.895 290.921Z" fill="#FFB8B8"/>
<path d="M164.563 288.914H151.437V297.443H172.828C172.828 296.323 172.614 295.214 172.199 294.179C171.784 293.145 171.175 292.204 170.407 291.412C169.64 290.62 168.729 289.992 167.726 289.563C166.723 289.135 165.649 288.914 164.563 288.914Z" fill="#2F2E41"/>
<path d="M119.03 290.921H125.836L129.074 263.829L119.028 263.829L119.03 290.921Z" fill="#FFB8B8"/>
<path d="M130.698 288.914H117.571V297.443H138.963C138.963 296.323 138.749 295.214 138.333 294.179C137.918 293.145 137.309 292.204 136.542 291.412C135.774 290.62 134.863 289.992 133.861 289.563C132.858 289.135 131.783 288.914 130.698 288.914Z" fill="#2F2E41"/>
<path d="M187.039 194.032C187.529 193.288 187.854 192.441 187.993 191.553C188.131 190.665 188.079 189.756 187.84 188.89C187.602 188.025 187.182 187.224 186.611 186.544C186.04 185.864 185.331 185.322 184.535 184.955L161.398 119.145L150.013 125.557L176.43 188.447C175.922 189.869 175.937 191.433 176.471 192.844C177.006 194.255 178.023 195.414 179.331 196.102C180.639 196.791 182.145 196.96 183.566 196.579C184.987 196.197 186.222 195.291 187.039 194.032Z" fill="#FFB8B8"/>
<path d="M122.506 206.398C123.263 205.95 123.915 205.337 124.417 204.601C124.919 203.866 125.258 203.025 125.411 202.14C125.564 201.254 125.527 200.344 125.303 199.475C125.079 198.605 124.672 197.797 124.112 197.107L131.28 127.491L118.324 128.102L115.345 196.578C114.284 197.626 113.633 199.038 113.514 200.548C113.395 202.058 113.816 203.561 114.699 204.771C115.582 205.981 116.864 206.815 118.303 207.115C119.742 207.415 121.238 207.16 122.506 206.398Z" fill="#FFB8B8"/>
<path d="M143.176 106.956C135.645 106.956 129.54 100.655 129.54 92.8839C129.54 85.1124 135.645 78.8123 143.176 78.8123C150.706 78.8123 156.811 85.1124 156.811 92.8839C156.811 100.655 150.706 106.956 143.176 106.956Z" fill="#FFB8B8"/>
<path d="M122.593 190.565H163.702L163.653 190.235C163.579 189.742 156.326 140.712 161.675 124.672C162.212 123.096 162.165 121.37 161.543 119.828C160.921 118.285 159.768 117.035 158.306 116.317H158.306C150.66 112.601 135.984 108.026 123.596 119.129C121.773 120.79 120.35 122.866 119.439 125.192C118.527 127.519 118.153 130.032 118.345 132.534L122.593 190.565Z" fill="#0CF1E2"/>
<path d="M155.807 147.958L174.314 144.083L165.639 122.868C165.12 120.813 163.832 119.055 162.058 117.978C160.285 116.902 158.17 116.596 156.177 117.126C154.185 117.657 152.478 118.982 151.43 120.81C150.383 122.638 150.081 124.82 150.591 126.877L155.807 147.958Z" fill="#0CF1E2"/>
<path d="M132.103 155.153L133.216 128.832C134.059 123.884 131.315 119.206 127.094 118.442C122.871 117.68 118.748 121.112 117.901 126.096L113.719 150.69L132.103 155.153Z" fill="#0CF1E2"/>
<path d="M123.961 187.414C117.346 213.412 116.625 246.465 118.409 282.52L127.292 281.374L143.392 212.623L152.275 282.52L162.268 281.947C165.253 244.117 168.16 211.64 163.378 190.279L123.961 187.414Z" fill="#2F2E41"/>
<path d="M134.191 103.759C136.735 106.555 141.459 105.054 141.791 101.234C141.817 100.937 141.815 100.639 141.785 100.343C141.614 98.6505 140.667 97.1142 140.893 95.3275C140.945 94.8828 141.105 94.459 141.36 94.0963C143.387 91.2951 148.145 95.3492 150.058 92.8134C151.231 91.2585 149.853 88.8103 150.753 87.0724C151.941 84.7786 155.46 85.9101 157.667 84.654C160.122 83.2563 159.975 79.3686 158.359 77.0039C156.388 74.12 152.932 72.5812 149.519 72.3594C146.106 72.1376 142.716 73.0898 139.53 74.3712C135.91 75.8272 132.32 77.8394 130.092 81.1246C127.382 85.1197 127.122 90.4907 128.477 95.1622C129.301 98.004 132.114 101.475 134.191 103.759Z" fill="#2F2E41"/>
<path d="M16.6654 297.716H426.546C426.721 297.716 426.888 297.644 427.012 297.516C427.136 297.388 427.205 297.215 427.205 297.034C427.205 296.854 427.136 296.68 427.012 296.553C426.888 296.425 426.721 296.353 426.546 296.352H16.6654C16.4904 296.353 16.3227 296.425 16.1992 296.553C16.0756 296.68 16.0062 296.854 16.0062 297.034C16.0062 297.215 16.0756 297.388 16.1992 297.516C16.3227 297.644 16.4904 297.716 16.6654 297.716Z" fill="#EEEEEE"/>
<path d="M222.624 235.185H294.797C295.747 235.191 296.661 234.807 297.337 234.118C298.014 233.429 298.398 232.491 298.405 231.51V65.2648C298.398 64.2839 298.014 63.3461 297.337 62.6571C296.661 61.968 295.747 61.584 294.797 61.5893H222.624C221.674 61.584 220.76 61.968 220.083 62.6571C219.407 63.3461 219.023 64.2839 219.016 65.2648V231.51C219.023 232.491 219.407 233.429 220.083 234.118C220.76 234.807 221.674 235.191 222.624 235.185Z" fill="#96F9FF"/>
<path d="M219.016 115.381H298.405V116.527H219.016V115.381Z" fill="#555555"/>
<path d="M218.738 180.758H298.128V181.903H218.738V180.758Z" fill="#555555"/>
<path d="M272.312 61.5894H273.422V235.758H272.312V61.5894Z" fill="#555555"/>
<path d="M244.553 61.5894H245.664V235.758H244.553V61.5894Z" fill="#555555"/>
</g>
<defs>
<clipPath id="clip0">
<rect width="483" height="298" fill="white" transform="matrix(-1 0 0 1 483 0)"/>
</clipPath>
</defs>
</svg>
