<svg width="1301" height="488" viewBox="0 0 1301 488" fill="none" xmlns="http://www.w3.org/2000/svg">
<path d="M1301 212.869L1246.79 243.391C1192.58 274.487 1084.17 334.672 975.75 335.102C867.333 334.672 758.917 274.487 650.5 212.869C542.083 151.251 433.667 91.0658 325.25 75.303C216.833 59.5403 108.417 91.0658 54.2083 105.825L-3.24249e-05 121.158V488H54.2083C108.417 488 216.833 488 325.25 488C433.667 488 542.083 488 650.5 488C758.917 488 867.333 488 975.75 488C1084.17 488 1192.58 488 1246.79 488H1301V212.869Z" fill="#333333"/>
</svg>
